<svg xmlns="http://www.w3.org/2000/svg" viewBox="0 0 64 64" aria-labelledby="title desc" role="img">
  <title>Gasfitería Full Santiago</title>
  <desc>Ícono sencillo para la gasfitería: una llave inglesa en un círculo azul.</desc>
  <defs>
    <linearGradient id="g" x1="0" y1="0" x2="1" y2="1">
      <stop offset="0" stop-color="#1e3a8a"/>
      <stop offset="1" stop-color="#2563eb"/>
    </linearGradient>
  </defs>
  <circle cx="32" cy="32" r="30" fill="url(#g)"/>
  <g fill="#fff" transform="translate(16,16)">
    <path d="M20.7 4.3a3 3 0 014.2 4.2l-3.1 3.1 3.3 3.3a3 3 0 01-4.2 4.2l-3.3-3.3-9.9 9.9a4 4 0 01-3 1.2H4a2 2 0 01-2-2v-2c0-.8.3-1.6.9-2.1l9.9-9.9-3.3-3.3a3 3 0 014.2-4.2l3.3 3.3 3.1-3.1z"/>
  </g>
</svg>